<svg xmlns:xlink="http://www.w3.org/1999/xlink" xmlns="http://www.w3.org/2000/svg" width="50" height="50" viewBox="0 0 50 50"><path fill="#5A5A5A" d="M38.821 9.492A2.498 2.498 0 0 0 36.326 7H13.67a2.498 2.498 0 0 0-2.495 2.492v7.106l-8.177 12.65V43h5.363v-4.85h33.278V43h5.363V29.248l-8.177-12.65V9.492h-.004zm6.165 19.256H5.01l4.98-7.7h30.02l4.98 7.7h-.004zm-34.08-9.115 1.368-2.116h25.451l1.368 2.116H10.906zM21.77 16.1h-6.545v-3.67c0-.225.183-.411.412-.411h5.721c.225 0 .412.182.412.41v3.672-.001zm12.795 0h-6.544v-3.67c0-.225.182-.411.411-.411h5.721c.226 0 .412.182.412.41v3.672-.001zM12.596 9.491c0-.593.484-1.075 1.078-1.075h22.652c.594 0 1.077.482 1.077 1.076V16.1h-1.421v-3.67a1.83 1.83 0 0 0-1.83-1.827h-5.72a1.83 1.83 0 0 0-1.83 1.827v3.67h-3.408v-3.67a1.83 1.83 0 0 0-1.83-1.827h-5.72a1.83 1.83 0 0 0-1.83 1.827v3.67h-1.207V9.49h-.009l-.002.001zm30.46 32.093v-4.85H6.94v4.85H4.416V30.167h41.16v11.417h-2.523.003z"></path></svg>