<svg xmlns:xlink="http://www.w3.org/1999/xlink" xmlns="http://www.w3.org/2000/svg" width="50" height="50" viewBox="0 0 50 50"><path fill="#5A5A5A" d="M42.598 18.767v-2.92c0-3.224-2.59-5.847-5.772-5.847h-9.934c-.751 0-1.425.331-1.892.855A2.528 2.528 0 0 0 23.108 10h-9.933c-3.185 0-5.773 2.623-5.773 5.847v2.92c-1.648.315-2.902 1.785-2.902 3.546v11.738c0 1.234.844 2.272 1.975 2.556l-.597 1.855c-.114.355-.054.75.163 1.055.217.304.567.483.938.483h1.127c.45 0 .864-.267 1.054-.683l1.195-2.63h29.29l1.194 2.63c.19.416.601.683 1.055.683h1.127c.37 0 .72-.183.938-.483.217-.305.277-.697.163-1.055l-.597-1.855A2.632 2.632 0 0 0 45.5 34.05V22.313c0-1.76-1.251-3.231-2.902-3.546zm-15.706-7.429h9.934c2.456 0 4.45 2.022 4.45 4.51v2.916s-.02.003-.03.007c-.04.007-.08.02-.12.027-.07.017-.136.034-.203.054a1.265 1.265 0 0 0-.127.044c-.063.02-.123.044-.183.067-.044.017-.084.038-.127.055-.06.027-.117.054-.174.084-.04.02-.08.044-.12.064a2.802 2.802 0 0 0-.166.105 3.144 3.144 0 0 0-.273.2l-.091.07c-.067.058-.13.119-.194.18-.013.013-.03.027-.046.044a2.96 2.96 0 0 0-.217.243c-.02.024-.037.05-.057.074a4.47 4.47 0 0 0-.14.19c-.023.033-.043.07-.067.104-.036.058-.073.115-.106.176a2.91 2.91 0 0 0-.15.298c-.02.04-.037.084-.054.128-.023.06-.047.125-.067.186-.013.044-.03.088-.04.132-.02.067-.036.131-.05.199l-.03.129c-.013.074-.023.152-.033.226-.003.037-.01.074-.017.111a3.99 3.99 0 0 0-.017.349v2.203H25.664V12.586c0-.686.554-1.248 1.23-1.248h-.002zm11.482 16.079H11.626v-1.562h26.748v1.562zm-29.65-11.57c0-2.487 1.994-4.509 4.45-4.509h9.934c.678 0 1.232.561 1.232 1.248v11.93H11.626v-2.203a3.99 3.99 0 0 0-.017-.348c-.003-.037-.01-.075-.013-.112a5.455 5.455 0 0 0-.034-.23l-.03-.128-.05-.2-.04-.131c-.02-.064-.043-.125-.066-.19a2.95 2.95 0 0 0-.14-.304l-.06-.118a3.926 3.926 0 0 0-.107-.176c-.024-.034-.044-.07-.067-.104a3.488 3.488 0 0 0-.14-.19c-.02-.023-.037-.05-.057-.074a3.736 3.736 0 0 0-.217-.243c-.013-.014-.03-.028-.043-.041-.063-.06-.127-.122-.194-.18a708.222 708.222 0 0 0-.256-.199 4.51 4.51 0 0 0-.274-.176 2.071 2.071 0 0 0-.12-.064c-.057-.03-.117-.057-.174-.084a4.019 4.019 0 0 0-.31-.122c-.043-.013-.083-.03-.127-.044-.066-.02-.136-.037-.203-.054-.04-.01-.08-.02-.12-.027-.01 0-.02-.007-.03-.007v-2.916l-.014-.004h.001zM5.82 34.051V22.313c0-1.25 1.004-2.271 2.242-2.271s2.242 1.017 2.242 2.271v13.036H7.102a1.288 1.288 0 0 1-1.278-1.294l-.003-.004H5.82zm2.179 4.61h-.798l.634-1.973h1.058l-.898 1.974H8l-.001-.001zm30.37-3.312H11.627v-6.59h26.748v6.59h-.006zm3.624 3.313-.898-1.974h1.058l.634 1.974h-.797.003zm2.178-4.61c0 .713-.574 1.294-1.277 1.294h-3.203V22.31c0-1.251 1.004-2.272 2.242-2.272 1.237 0 2.242 1.018 2.242 2.272v11.738l-.004.003v.001z"></path></svg>