<svg xmlns:xlink="http://www.w3.org/1999/xlink" xmlns="http://www.w3.org/2000/svg" width="50" height="50" viewBox="0 0 50 50"><path fill="#5A5A5A" d="M16.706 25.473h-1.192v2.073h1.192v-2.073zm4.781 0h-1.192v2.073h1.192v-2.073z"></path><path fill="#5A5A5A" d="M27.02 23.7H39.8V8.5H10.26v15.2h12.78v1.942H6.497v14.09h3.98V41.5h4.51v-1.769h20.026V41.5h4.51v-1.769h3.98V25.642H27.026V23.7h-.006zM11.452 9.683h27.153v10.166H11.452V9.683zm0 12.831v-1.481h27.153v1.481H11.452zm12.78 1.183h1.593v1.942h-1.593v-1.942zM13.79 40.311h-2.123v-.586h2.123v.586zm-3.315-1.769H7.689v-8.168h16.709v8.168H10.474zm27.85 1.769h-2.122v-.586h2.123v.586zm3.98-1.769H25.597v-8.168h16.709v8.168zm0-11.72v2.37H7.69v-2.37h34.616z"></path></svg>