<svg xmlns:xlink="http://www.w3.org/1999/xlink" xmlns="http://www.w3.org/2000/svg" width="50" height="50" viewBox="0 0 50 50"><path fill="#5A5A5A" d="M36.508 9h-23.02v26.928h-1.49v2.968h1.49V41h2.88v-2.104h17.265V41h2.88v-2.104h1.489v-2.968h-1.49V9h-.003zm-21.99 1.031h20.957v25.894h-.815V10.747H15.334v25.178h-.816V10.031zm1.846 25.894V24.367h8.116v11.558h-8.116zM33.63 11.781v11.558h-8.115V11.78h8.116v.001zm-9.15 11.558h-8.113V11.78h8.116v11.558l-.002.001zm1.033 1.03h8.115v11.559H25.51V24.369zM15.334 39.97h-.815v-1.073h.815v1.073zm20.142 0h-.816v-1.073h.816v1.073zm1.49-3.007v.903H13.027v-.903h23.938z"></path><path fill="#5A5A5A" d="M6.334 11.446a.51.51 0 0 0 .365-.15l4.647-4.649c.2-.2.2-.528 0-.729-.2-.2-.528-.2-.729 0L5.97 10.566a.517.517 0 0 0 .364.88zm.339-3.484a.51.51 0 0 0 .365-.15l1.986-1.987a.517.517 0 0 0-.729-.729L6.31 7.082a.517.517 0 0 0 .364.88h-.001zm4.134 1.472-2.262 2.262a.517.517 0 0 0 .364.88.51.51 0 0 0 .365-.15l2.263-2.263a.517.517 0 0 0-.729-.729h-.001zm9.376 8.412c-.2-.2-.528-.2-.729 0l-4.647 4.648a.517.517 0 0 0 .364.88.51.51 0 0 0 .365-.151l4.647-4.648c.2-.2.2-.528 0-.729zm-4.673 2.047a.51.51 0 0 0 .364-.151l1.987-1.987a.517.517 0 0 0-.729-.729l-1.987 1.986a.517.517 0 0 0 .365.88v.001zm4.131 1.468-2.262 2.263a.517.517 0 0 0 .364.88.51.51 0 0 0 .365-.151l2.262-2.263c.2-.2.2-.528 0-.729-.2-.2-.528-.2-.729 0z"></path></svg>