<svg xmlns:xlink="http://www.w3.org/1999/xlink" xmlns="http://www.w3.org/2000/svg" width="50" height="50" viewBox="0 0 50 50"><path fill="#5A5A5A" d="m40 24.54-2.42-6.332-5.44-14.21H17.856l-5.433 14.21L10 24.54h12.913v17.62h-5.709c-1.07 0-1.94.862-1.94 1.921 0 1.06.87 1.92 1.94 1.92h15.592c1.07 0 1.94-.86 1.94-1.92s-.87-1.92-1.94-1.92h-5.71V24.54h5.4v7.295a2.057 2.057 0 0 0-1.399 1.938c0 1.138.936 2.06 2.082 2.06s2.081-.925 2.081-2.06c0-.899-.587-1.654-1.398-1.938V24.54H40zm-6.831 9.938a.712.712 0 0 1-.715-.707c0-.39.321-.708.715-.708.393 0 .714.318.714.708 0 .39-.32.707-.714.707zM18.802 5.352h12.392l4.92 12.853H13.886l4.915-12.853zm13.994 38.162c.314 0 .57.253.57.564a.567.567 0 0 1-.57.564H17.204a.567.567 0 0 1-.57-.564c0-.311.256-.564.57-.564h15.592zM25.72 42.16h-1.436V24.54h1.436v17.62zm-2.807-18.974H11.981l1.388-3.622h23.265l1.388 3.622H22.913z"></path></svg>