<svg xmlns:xlink="http://www.w3.org/1999/xlink" xmlns="http://www.w3.org/2000/svg" width="50" height="50" viewBox="0 0 50 50"><path fill="#5A5A5A" d="M35.772 16.347a1.8 1.8 0 0 0 1.445-1.76 1.8 1.8 0 0 0-1.797-1.797h-3.36v-1.825h1.026a.678.678 0 0 0 .676-.677.678.678 0 0 0-.676-.677h-3.408a.678.678 0 0 0-.676.677c0 .373.304.677.676.677h1.026v1.825h-4.966V6.399c0-.574.468-1.046 1.043-1.046.574 0 1.042.468 1.042 1.046v1.145a.676.676 0 1 0 1.353 0V6.399A2.402 2.402 0 0 0 26.777 4a2.402 2.402 0 0 0-2.399 2.399v6.387h-4.682v-1.825h1.025a.678.678 0 0 0 .677-.676.678.678 0 0 0-.677-.677h-3.407a.678.678 0 0 0-.676.677c0 .372.304.676.676.676h1.025v1.825H14.58a1.796 1.796 0 0 0-.352 3.558c.031.41.096.81.185 1.203H4v4.104h1.094V43.14h2.71V46h3.793v-2.86h26.885V46h3.793v-2.86h2.635V21.65H46v-4.103H35.584c.092-.39.154-.793.184-1.203l.004.003zm-8.134 6.172h-5.27a6.82 6.82 0 0 1-6.776-6.134h18.826c-.341 3.438-3.25 6.134-6.776 6.134h-.004zm-13.05-8.376H35.42a.442.442 0 0 1 0 .882H14.587a.446.446 0 0 1-.44-.441c0-.24.2-.441.44-.441h.001zm-9.235 4.76h9.5c.213.492.469.957.766 1.395H5.353v-1.395zm4.887 25.744H9.157v-1.504h1.083v1.504zm-2.44-2.86H6.447V21.653h10.341a8.135 8.135 0 0 0 5.577 2.218h1.958v17.914H7.8v.002zm33.118 2.86h-1.083v-1.504h1.083v1.504zm2.635-2.86h-17.88V23.871h1.958a8.135 8.135 0 0 0 5.578-2.218h10.344v20.134zm1.09-22.884v1.395H34.381c.297-.438.557-.903.765-1.395h9.497z"></path><path fill="#5A5A5A" d="M17.012 25.433h-1.354v4.288h1.354v-4.288zm9.295 0h-1.353v4.288h1.353v-4.288z"></path></svg>