<svg xmlns:xlink="http://www.w3.org/1999/xlink" xmlns="http://www.w3.org/2000/svg" width="50" height="50" viewBox="0 0 50 50"><path fill="#5A5A5A" d="M8.5 13.467h2.242v21.785h-1.2v2.623H8.5V41.5h33v-3.625h-1.042v-2.623h-1.2V13.467H41.5V8.5h-33v4.967zm31.937 26.97H9.563V38.94h30.871v1.496h.003zm-1.042-4.12v1.496H10.608v-1.495h10.646a.47.47 0 0 0 .089.008h7.32s.018 0 .026-.003h5.287v-.003h5.422l-.003-.002zm-6.485-1.063h-.708V22.261c0-.964-.564-1.852-1.437-2.263l-5.762-2.72-5.763 2.712a2.513 2.513 0 0 0-1.436 2.263v12.999h-.709V22.253a3.22 3.22 0 0 1 1.845-2.905l6.065-2.854 6.066 2.862a3.222 3.222 0 0 1 1.842 2.905v12.993h-.003zm-1.774 0h-1.942V33.72a.533.533 0 0 0-.532-.532h-.848c.293-.28.553-.62.746-1.034.897-1.92.64-5.048-1.34-6.747-.98-.844-1.562-1.749-1.683-2.621a.533.533 0 0 0-.894-.312c-.91.87-1.139 2.699-.019 3.937.913 1.004 1.557 2.714 1.33 3.517-.106.37-.632.733-1.129.776-.49.046-.636-.244-.684-.34-.14-.285-.089-.495.04-.938.196-.668.462-1.584-.282-3.074a.533.533 0 0 0-.99.373c.042.16-.07.413-.336.754-.207.269-.492.634-.862 1.171-.696 1.007-1.085 2.594-.387 3.867.12.223.29.453.516.674h-.497a.533.533 0 0 0-.532.531v1.533H18.87v-13c0-.554.325-1.064.824-1.3l5.309-2.498 5.31 2.508c.503.237.825.747.825 1.3v12.993l-.003-.003zm-7.951-4.422c.32.65.972.999 1.734.93.946-.087 1.829-.75 2.055-1.545.365-1.275-.516-3.37-1.566-4.524a1.848 1.848 0 0 1-.478-1.394c.35.66.88 1.303 1.595 1.915 1.55 1.332 1.804 3.915 1.069 5.49-.543 1.163-1.791 1.464-2.186 1.48-1.61.06-2.698-.351-3.15-1.178-.477-.873-.163-2.038.33-2.753.307-.44.551-.762.742-1.01-.005.334-.086.613-.167.887-.142.486-.303 1.039.027 1.707l-.005-.005zm-1.31 3.418h6.253v1.004h-6.254V34.25zm16.32 1.004h-4.221V22.261a4.29 4.29 0 0 0-2.455-3.866L25 15.317l-6.52 3.067a4.294 4.294 0 0 0-2.454 3.87v13h-4.22V13.467h26.386v21.785l.003.002zM9.563 9.564h30.871V12.4H9.564V9.563z"></path></svg>