<svg xmlns:xlink="http://www.w3.org/1999/xlink" xmlns="http://www.w3.org/2000/svg" width="50" height="50" viewBox="0 0 50 50"><path fill="#5A5A5A" d="M24.404 27.004a5.5 5.5 0 0 0 1.56.243c.418 0 .857-.058 1.289-.205 1.775-.608 2.69-2.498 2.73-2.577l.286-.598-.587-.3c-.077-.042-1.94-.975-3.712-.366a3.762 3.762 0 0 0-.533.236l.047-.083c.334-.54.624-1.291.824-2.108a4.828 4.828 0 0 0 4.92-.489 4.995 4.995 0 0 0 1.906-5.099 4.995 4.995 0 0 0 1.418-5.259c-.611-1.903-2.265-3.226-4.198-3.41a4.892 4.892 0 0 0-4.502-2.99 4.892 4.892 0 0 0-4.502 2.99c-1.933.184-3.587 1.51-4.198 3.41a4.997 4.997 0 0 0 1.418 5.26 4.983 4.983 0 0 0 1.906 5.098 4.856 4.856 0 0 0 2.886.954c.506 0 1.009-.09 1.498-.25-.165.52-.351.926-.506 1.176-.334.54-.857 1.702-1.134 3.185-.466-.52-1.12-1.07-1.96-1.333-1.79-.564-3.628.42-3.703.461l-.577.315.3.591c.041.079 1.003 1.941 2.795 2.505.398.126.796.174 1.178.174.698 0 1.332-.164 1.795-.324.027.628.118 1.278.287 1.937H14.5v4.665h.77l2.227 11.189h15.006l2.228-11.189h.769v-4.665H24.718a8.244 8.244 0 0 1-.314-3.137v-.007zm1.991-2.522c.692-.236 1.445-.12 1.978.031-.33.448-.86 1.008-1.549 1.244-.692.236-1.448.12-1.978-.03.331-.449.861-1.009 1.553-1.245h-.004zm-5.136-4.825a3.633 3.633 0 0 1-1.296-4.043l.152-.468-.395-.29a3.632 3.632 0 0 1-1.299-4.043 3.565 3.565 0 0 1 3.395-2.498h.486l.152-.469a3.565 3.565 0 0 1 3.395-2.498 3.565 3.565 0 0 1 3.394 2.498l.152.469h.486a3.565 3.565 0 0 1 3.395 2.498 3.634 3.634 0 0 1-1.3 4.042l-.394.29.152.47a3.633 3.633 0 0 1-1.296 4.042 3.53 3.53 0 0 1-4.198 0l-.395-.29-.394.29a3.519 3.519 0 0 1-4.198 0h.006zm-.796 7.405c-.699-.218-1.239-.762-1.583-1.203.53-.164 1.283-.304 1.978-.085.698.219 1.238.762 1.582 1.203-.53.164-1.282.304-1.977.085zm10.944 17.58H18.59l-1.957-9.832h16.73l-1.956 9.832zm2.753-11.189H15.836v-1.955H34.16v1.955zM14.652 8.854c0-1.842-1.481-3.342-3.3-3.342-1.819 0-3.3 1.5-3.3 3.342s1.481 3.343 3.3 3.343c1.819 0 3.3-1.5 3.3-3.343zm-5.264 0c0-1.097.88-1.988 1.964-1.988 1.083 0 1.964.891 1.964 1.988s-.88 1.99-1.964 1.99c-1.083 0-1.964-.893-1.964-1.99z"></path></svg>