<svg xmlns:xlink="http://www.w3.org/1999/xlink" xmlns="http://www.w3.org/2000/svg" width="50" height="50" viewBox="0 0 50 50"><path fill="#5A5A5A" d="M2.996 14.178h.86v25.82h4.027l1.006-2.963h32.222l1.006 2.963h4.027v-25.82h.86v-4.176H2.996v4.176zm3.867 24.403h-1.59V37.04H7.39l-.522 1.542h-.004zm10.611-2.963h-12.2v-21.44h12.2v21.44zM31.097 20.38H18.896v-6.202h12.201v6.202zm0 7.619H18.896v-6.202h12.201V28zm-12.201 7.619v-6.202h12.201v6.202H18.896zm25.823 2.963h-1.59l-.522-1.542h2.116v1.542h-.004zm0-2.963h-12.2v-21.44h12.2v21.44zm-40.305-24.2h41.161v1.34H4.415v-1.339zm19.713-4.851H19.87v1.417h4.257V6.567z"></path><path fill="#5A5A5A" d="M11.807 12.629H10.39v4.255h1.417v-4.255zm12.32 1.557H19.87v1.417h4.257v-1.417zm0 7.623H19.87v1.417h4.257v-1.417zm9.483-8.807h-1.418v4.254h1.418v-4.255z"></path></svg>