<svg xmlns:xlink="http://www.w3.org/1999/xlink" xmlns="http://www.w3.org/2000/svg" width="50" height="50" viewBox="0 0 50 50"><path fill="#5A5A5A" stroke="null" d="M9.102 29.895h.847v10.548h.632V42H39.42v-1.557h.632V29.895h.847v-2.597H9.102v2.597zm14.532 9.509v-9.51h7.182v9.51h-7.182zM10.978 33.35h11.63v6.054h-11.63V33.35zm11.63-1.04h-11.63v-2.415h11.63v2.415zm15.787 8.65H11.61v-.514h26.783v.514h.002zm.632-1.554h-7.182v-9.509h7.182v9.51zM10.131 28.341h29.746v.514H10.131v-.514z"></path><path fill="#5A5A5A" d="M31.323 10.01H22.67v5.558l-.927-3.302V10H11.121v2.268L9 19.818h32V10.01h-9.677zm-19.176 1.03h8.569v.78h-8.569v-.78zm-1.787 7.74 1.663-5.921h8.82l1.663 5.92H10.36zm20.963 0h-7.626v-7.73h7.626v7.73zm8.651-7.73v7.73H32.35v-7.73h7.625zM25 31.68a.516.516 0 0 0 .513-.52c0-.287-.23-.52-.513-.52a.516.516 0 0 0-.513.52c0 .287.23.52.513.52z"></path><path fill="#5A5A5A" d="M25 31.68a.516.516 0 0 0 .513-.52c0-.287-.23-.52-.513-.52a.516.516 0 0 0-.513.52c0 .287.23.52.513.52z"></path><path fill="#5A5A5A" d="M25 31.68a.516.516 0 0 0 .513-.52c0-.287-.23-.52-.513-.52a.516.516 0 0 0-.513.52c0 .287.23.52.513.52z"></path><path fill="#5A5A5A" d="M25 31.68a.516.516 0 0 0 .513-.52c0-.287-.23-.52-.513-.52a.516.516 0 0 0-.513.52c0 .287.23.52.513.52zm-4.378 6.897h8.756v-4.203h-8.756v4.203zm1.026-3.161h6.701v2.121h-6.7v-2.121z"></path><path fill="#5A5A5A" d="M25.513 33.738h-1.026v1.82h1.026v-1.82z"></path><path fill="#5A5A5A" d="M25.513 33.738h-1.026v1.82h1.026v-1.82zm0-20.188h-1.026v1.819h1.026v-1.82z"></path><path fill="#5A5A5A" d="M25.513 13.55h-1.026v1.819h1.026v-1.82z"></path></svg>